HIERARCHY
ROOT Reference
{
  OFFSET 0 0 0
  CHANNELS 6 Xposition Yposition Zposition Zrotation Xrotation Yrotation
  JOINT Hips
  {
    OFFSET 251.394 724.17 483.536
    CHANNELS 3 Zrotation Xrotation Yrotation
    JOINT RightUpLeg
    {
      OFFSET -0.450515 -23.4426 -1.37224
      CHANNELS 3 Zrotation Xrotation Yrotation
      JOINT RightLeg
      {
        OFFSET 112.821 0.0872427 -0.321027
        CHANNELS 3 Zrotation Xrotation Yrotation
        JOINT RightFoot
        {
          OFFSET 105.718 0.000193788 0.0213165
          CHANNELS 3 Zrotation Xrotation Yrotation
          JOINT RightToeBase
          {
            OFFSET 37.638 -0.000116272 0.00224792
            CHANNELS 3 Zrotation Xrotation Yrotation
            JOINT RightToeEnd
            {
              OFFSET 21.2112 0.114605 -0.000138184
              CHANNELS 3 Zrotation Xrotation Yrotation
              End Site
              {
                OFFSET 0 0 0
              }
            }
          }
        }
      }
    }
    JOINT LeftUpLeg
    {
      OFFSET -0.449508 23.4315 -1.37054
      CHANNELS 3 Zrotation Xrotation Yrotation
      JOINT LeftLeg
      {
        OFFSET 112.821 -0.0485242 -0.372458
        CHANNELS 3 Zrotation Xrotation Yrotation
        JOINT LeftFoot
        {
          OFFSET 105.716 0.00496094 -0.0229443
          CHANNELS 3 Zrotation Xrotation Yrotation
          JOINT LeftToeBase
          {
            OFFSET 37.639 0 0.00158905
            CHANNELS 3 Zrotation Xrotation Yrotation
            JOINT LeftToeEnd
            {
              OFFSET 21.2113 -0.125031 -0.00017438
              CHANNELS 3 Zrotation Xrotation Yrotation
              End Site
              {
                OFFSET 0 0 0
              }
            }
          }
        }
      }
    }
    JOINT Spine
    {
      OFFSET -5.01225 0.000463591 -9.60395
      CHANNELS 3 Zrotation Xrotation Yrotation
      JOINT Spine1
      {
        OFFSET 26.0222 -0.000271301 -0.000155029
        CHANNELS 3 Zrotation Xrotation Yrotation
        JOINT Spine2
        {
          OFFSET 27.173 -0.000155029 -0.000310058
          CHANNELS 3 Zrotation Xrotation Yrotation
          JOINT Spine3
          {
            OFFSET 36.3953 -0.000232544 7.75146e-005
            CHANNELS 3 Zrotation Xrotation Yrotation
            JOINT Neck
            {
              OFFSET 36.4331 0 -3.00261
              CHANNELS 3 Zrotation Xrotation Yrotation
              JOINT Head
              {
                OFFSET 23.0407 -0.000232544 -0.000310058
                CHANNELS 3 Zrotation Xrotation Yrotation
                End Site
                {
                  OFFSET 0 0 0
                }
              }
            }
            JOINT LeftShoulder
            {
              OFFSET 20.1317 6.74168 -12.6061
              CHANNELS 3 Zrotation Xrotation Yrotation
              JOINT LeftArm
              {
                OFFSET 34.2172 -5.81359e-005 7.75146e-005
                CHANNELS 3 Zrotation Xrotation Yrotation
                JOINT LeftForeArm
                {
                  OFFSET 65.4129 -0.0821605 0.0585235
                  CHANNELS 3 Zrotation Xrotation Yrotation
                  JOINT LeftHand
                  {
                    OFFSET 67.3883 0.0359667 0.0112396
                    CHANNELS 3 Zrotation Xrotation Yrotation
                    JOINT LeftHandThumb1
                    {
                      OFFSET 8.78386 2.85353 -6.05362
                      CHANNELS 3 Zrotation Xrotation Yrotation
                      JOINT LeftHandThumb2
                      {
                        OFFSET 8.25498 -0.000116272 -0.000174407
                        CHANNELS 3 Zrotation Xrotation Yrotation
                        JOINT LeftHandThumb3
                        {
                          OFFSET 7.24822 0.000310058 5.81358e-005
                          CHANNELS 3 Zrotation Xrotation Yrotation
                          JOINT LeftHandThumb4
                          {
                            OFFSET 7.0004 -3.87568e-005 -0.000310057
                            CHANNELS 3 Zrotation Xrotation Yrotation
                            End Site
                            {
                              OFFSET 0 0 0
                            }
                          }
                        }
                      }
                    }
                    JOINT LeftHandIndex1
                    {
                      OFFSET 24.0991 -1.01537 -5.40558
                      CHANNELS 3 Zrotation Xrotation Yrotation
                      JOINT LeftHandIndex2
                      {
                        OFFSET 7.26759 -0.000290679 -0.000465086
                        CHANNELS 3 Zrotation Xrotation Yrotation
                        JOINT LeftHandIndex3
                        {
                          OFFSET 7.13628 -1.93787e-005 0.000232543
                          CHANNELS 3 Zrotation Xrotation Yrotation
                          JOINT LeftHandIndex4
                          {
                            OFFSET 5.46699 9.68932e-005 -0.000387571
                            CHANNELS 3 Zrotation Xrotation Yrotation
                            End Site
                            {
                              OFFSET 0 0 0
                            }
                          }
                        }
                      }
                    }
                    JOINT LeftHandMiddle1
                    {
                      OFFSET 24.4604 -2.52837 0.918567
                      CHANNELS 3 Zrotation Xrotation Yrotation
                      JOINT LeftHandMiddle2
                      {
                        OFFSET 7.41627 -5.81359e-005 0.000116271
                        CHANNELS 3 Zrotation Xrotation Yrotation
                        JOINT LeftHandMiddle3
                        {
                          OFFSET 8.76829 3.87573e-005 -7.75142e-005
                          CHANNELS 3 Zrotation Xrotation Yrotation
                          JOINT LeftHandMiddle4
                          {
                            OFFSET 6.07588 -0.00013565 -5.81356e-005
                            CHANNELS 3 Zrotation Xrotation Yrotation
                            End Site
                            {
                              OFFSET 0 0 0
                            }
                          }
                        }
                      }
                    }
                    JOINT LeftHandRing1
                    {
                      OFFSET 22.465 -1.97467 6.3466
                      CHANNELS 3 Zrotation Xrotation Yrotation
                      JOINT LeftHandRing2
                      {
                        OFFSET 7.36666 -0.000232544 0.000387571
                        CHANNELS 3 Zrotation Xrotation Yrotation
                        JOINT LeftHandRing3
                        {
                          OFFSET 8.07624 -0.000465087 -0.000203475
                          CHANNELS 3 Zrotation Xrotation Yrotation
                          JOINT LeftHandRing4
                          {
                            OFFSET 6.04433 0.00013565 3.87571e-005
                            CHANNELS 3 Zrotation Xrotation Yrotation
                            End Site
                            {
                              OFFSET 0 0 0
                            }
                          }
                        }
                      }
                    }
                    JOINT LeftHandPinky1
                    {
                      OFFSET 19.5278 0.352933 10.4295
                      CHANNELS 3 Zrotation Xrotation Yrotation
                      JOINT LeftHandPinky2
                      {
                        OFFSET 6.16525 5.8136e-005 -0.000251921
                        CHANNELS 3 Zrotation Xrotation Yrotation
                        JOINT LeftHandPinky3
                        {
                          OFFSET 6.14448 -0.000329434 -0.00510625
                          CHANNELS 3 Zrotation Xrotation Yrotation
                          JOINT LeftHandPinky4
                          {
                            OFFSET 4.98555 0.000116272 0.000116271
                            CHANNELS 3 Zrotation Xrotation Yrotation
                            End Site
                            {
                              OFFSET 0 0 0
                            }
                          }
                        }
                      }
                    }
                  }
                }
              }
            }
            JOINT RightShoulder
            {
              OFFSET 20.1309 -6.74152 -12.6063
              CHANNELS 3 Zrotation Xrotation Yrotation
              JOINT RightArm
              {
                OFFSET 34.2171 7.75146e-005 7.75146e-005
                CHANNELS 3 Zrotation Xrotation Yrotation
                JOINT RightForeArm
                {
                  OFFSET 65.4492 0.242543 -0.176501
                  CHANNELS 3 Zrotation Xrotation Yrotation
                  JOINT RightHand
                  {
                    OFFSET 67.3888 -0.0867388 0.0597442
                    CHANNELS 3 Zrotation Xrotation Yrotation
                    JOINT RightHandThumb1
                    {
                      OFFSET 8.78307 -2.85357 -6.05302
                      CHANNELS 3 Zrotation Xrotation Yrotation
                      JOINT RightHandThumb2
                      {
                        OFFSET 8.25493 -7.75145e-005 0
                        CHANNELS 3 Zrotation Xrotation Yrotation
                        JOINT RightHandThumb3
                        {
                          OFFSET 7.24797 -0.000174408 0.000155029
                          CHANNELS 3 Zrotation Xrotation Yrotation
                          JOINT RightHandThumb4
                          {
                            OFFSET 7.00062 0 0
                            CHANNELS 3 Zrotation Xrotation Yrotation
                            End Site
                            {
                              OFFSET 0 0 0
                            }
                          }
                        }
                      }
                    }
                    JOINT RightHandIndex1
                    {
                      OFFSET 24.0991 1.01525 -5.40578
                      CHANNELS 3 Zrotation Xrotation Yrotation
                      JOINT RightHandIndex2
                      {
                        OFFSET 7.26773 7.75144e-005 0.000232543
                        CHANNELS 3 Zrotation Xrotation Yrotation
                        JOINT RightHandIndex3
                        {
                          OFFSET 7.13572 -0.000310058 3.87571e-005
                          CHANNELS 3 Zrotation Xrotation Yrotation
                          JOINT RightHandIndex4
                          {
                            OFFSET 5.46717 0 3.87572e-005
                            CHANNELS 3 Zrotation Xrotation Yrotation
                            End Site
                            {
                              OFFSET 0 0 0
                            }
                          }
                        }
                      }
                    }
                    JOINT RightHandMiddle1
                    {
                      OFFSET 24.4603 2.52899 0.918547
                      CHANNELS 3 Zrotation Xrotation Yrotation
                      JOINT RightHandMiddle2
                      {
                        OFFSET 7.41641 -0.000116272 -0.000116272
                        CHANNELS 3 Zrotation Xrotation Yrotation
                        JOINT RightHandMiddle3
                        {
                          OFFSET 8.76765 -3.87577e-005 0.000232543
                          CHANNELS 3 Zrotation Xrotation Yrotation
                          JOINT RightHandMiddle4
                          {
                            OFFSET 6.07609 -0.000193787 -0.000116271
                            CHANNELS 3 Zrotation Xrotation Yrotation
                            End Site
                            {
                              OFFSET 0 0 0
                            }
                          }
                        }
                      }
                    }
                    JOINT RightHandRing1
                    {
                      OFFSET 22.465 1.97571 6.34696
                      CHANNELS 3 Zrotation Xrotation Yrotation
                      JOINT RightHandRing2
                      {
                        OFFSET 7.36684 0.000193786 0.000155029
                        CHANNELS 3 Zrotation Xrotation Yrotation
                        JOINT RightHandRing3
                        {
                          OFFSET 8.07614 -0.000271301 0
                          CHANNELS 3 Zrotation Xrotation Yrotation
                          JOINT RightHandRing4
                          {
                            OFFSET 6.04468 0.000232543 0
                            CHANNELS 3 Zrotation Xrotation Yrotation
                            End Site
                            {
                              OFFSET 0 0 0
                            }
                          }
                        }
                      }
                    }
                    JOINT RightHandPinky1
                    {
                      OFFSET 19.5277 -0.352346 10.4296
                      CHANNELS 3 Zrotation Xrotation Yrotation
                      JOINT RightHandPinky2
                      {
                        OFFSET 6.16508 0 0.000232543
                        CHANNELS 3 Zrotation Xrotation Yrotation
                        JOINT RightHandPinky3
                        {
                          OFFSET 6.14396 -0.000155048 -0.0048834
                          CHANNELS 3 Zrotation Xrotation Yrotation
                          JOINT RightHandPinky4
                          {
                            OFFSET 4.98577 -7.75146e-005 -7.75143e-005
                            CHANNELS 3 Zrotation Xrotation Yrotation
                            End Site
                            {
                              OFFSET 0 0 0
                            }
                          }
                        }
                      }
                    }
                  }
                }
              }
            }
          }
        }
      }
    }
  }
}
MOTION
Frames:	5
Frame Time:	0.0333333
0 0 0 -90 -7.01671e-015 -180 -2.7851 -2.75095 -112.441 -176.676 -12.153 -103.503 -0.185473 -0.406532 -22.6235 -3.29975 -2.68758 48.0485 -0.571888 0.104756 57.7613 2.0771e-005 -3.55777e-005 -86.4974 175.547 -1.92568 -105.45 -0.0162006 -0.0596685 -19.7018 0.863419 -6.90539 46.9776 0.581646 -0.122679 56.7844 -0.00106013 0.000718323 -86.4973 -1.59004e-005 5.60702e-005 121.665 -0.0307822 0.360224 -14.5349 1.49265 0.654237 -14.4864 -0.894421 2.28072 6.05231 -0.371574 1.3137 24.7691 3.54482 -2.11848 46.3679 105.103 23.2639 -22.6407 59.8206 22.2058 22.3131 -9.5794 19.1603 40.7499 -9.66637 -4.91956 -0.241008 -158.644 -1.25049 154.969 0.000471469 0.000161493 18.1946 0.000304899 -1.08463e-005 11.959 0.000350046 -0.00133658 -0.000100741 36.0642 86.5085 -17.7555 -0.000452093 -0.000464348 14.4454 0.00114719 -0.000801447 10.5802 -0.00061701 -0.000409782 -2.32877 -1.6934 86.8811 35.21 4.13637e-005 -0.000188953 17.605 0.00107792 -0.000720826 18.4311 -0.000536226 -0.000203483 -2.32824 -63.4318 87.7466 103.218 0.000237907 -0.000828307 21.6994 0.00153098 -0.000220587 22.5462 -0.000677798 -0.000740155 -2.32756 -63.1794 86.0904 102.721 0.00128802 -0.00127231 24.1169 7.85956e-005 -6.88565e-005 22.3014 1.27554e-005 -0.000128867 -2.32874 -102.311 -22.8567 -25.4012 -65.406 -20.2345 13.6142 9.73717 -13.1097 34.8341 3.64943 12.8387 -4.07499 158.644 1.25061 151.962 -1.36801e-005 0.000203367 15.1881 0.000292855 0.000247558 8.95279 -0.0002594 -0.000152588 -180 -36.0675 -86.5084 -23.3844 -0.000349246 -0.000190026 8.82135 0.000310493 0.000111176 4.95714 -0.000106192 1.52462e-005 177.672 1.6906 -86.8814 29.5836 3.97056e-005 2.76143e-005 11.9804 1.22448e-005 0.000155199 12.8066 -0.000207424 0.000152462 177.672 63.4311 -87.7471 97.5945 0.000186457 -0.000275997 16.0747 1.65586e-005 0.000418365 16.9212 -2.86579e-005 4.57385e-005 177.672 63.1801 -86.0906 97.0987 -0.000146796 0.000324526 18.4917 0.000137907 2.44176e-005 16.6768 -0.000228262 1.52462e-005 177.672 
0 0 0 -90 -7.01671e-015 -180 -2.84771 -1.88193 -112.436 -176.155 -12.4981 -103.609 -0.183327 -0.400529 -22.6005 -3.42501 -2.46374 48.1256 -0.57195 0.105659 57.6851 2.07474e-005 -5.29214e-005 -86.4974 176.581 -2.48511 -105.266 -0.0199472 -0.0605142 -19.7475 0.904088 -7.13886 46.8318 0.537195 -0.0927154 56.7537 -0.00105998 0.000702719 -86.4973 -0.000905557 7.22582e-005 121.747 0.46309 0.412886 -14.4898 1.36228 0.631995 -14.4594 -0.969563 2.47209 5.90869 -0.218852 0.444367 24.556 3.15922 -2.49045 46.3506 104.694 23.2963 -22.5036 60.1473 22.2843 21.623 -9.32267 19.9254 39.556 -9.08697 -3.66165 -0.679231 -158.644 -1.25047 154.969 0.0004715 0.000160623 18.1946 0.000304944 -1.08399e-005 11.959 0.000350047 -0.00133658 -0.000100741 36.0641 86.5085 -17.7555 -0.000451812 -0.000464249 14.4454 0.00114749 -0.00080355 10.5802 -0.000617072 -0.000409853 -2.32877 -1.69343 86.8811 35.2101 4.08925e-005 -0.000192416 17.605 0.00107827 -0.000723821 18.4311 -0.000536284 -0.000207733 -2.32824 -63.4318 87.7466 103.218 0.000234984 -0.000831494 21.6993 0.00153143 -0.000225397 22.5462 -0.000677829 -0.000742704 -2.32755 -63.1794 86.0904 102.721 0.00128878 -0.00127501 24.1169 8.28345e-005 -7.05029e-005 22.3014 1.28846e-005 -0.000133171 -2.32874 -102.264 -22.8349 -25.5289 -64.2863 -19.5795 14.6341 9.76116 -13.1454 32.0114 0.474145 7.22295 -3.85315 158.644 1.25058 151.962 -1.21773e-005 0.000198552 15.1881 0.000293739 0.000247664 8.95279 -0.0002594 -0.000152588 -180 -36.0675 -86.5084 -23.3843 -0.000349504 -0.000189606 8.82134 0.000310361 0.000111154 4.95713 -0.000106192 1.52462e-005 177.672 1.69047 -86.8814 29.5835 3.99897e-005 2.55386e-005 11.9804 1.34235e-005 0.000152356 12.8066 -0.000207424 0.000152462 177.672 63.4311 -87.7471 97.5945 0.000185436 -0.000277517 16.0746 1.63399e-005 0.000415632 16.9212 -2.86579e-005 4.57385e-005 177.672 63.18 -86.0906 97.0986 -0.0001481 0.000320154 18.4917 0.000137738 1.77075e-005 16.6768 -0.000228262 1.52462e-005 177.672 
0 0 0 -90 -7.01671e-015 -180 -2.94223 -1.13275 -112.49 -176.015 -12.7675 -103.742 -0.189396 -0.414434 -22.6158 -3.68926 -2.02692 48.1906 -0.572307 0.10783 57.5097 2.06726e-005 -7.80912e-005 -86.4974 177.272 -2.96238 -105.278 -0.0339688 -0.0701619 -19.6465 0.882036 -7.16818 46.6743 0.477347 -0.0520484 56.711 -0.00105995 0.000686192 -86.4973 0.00460802 0.00309665 121.904 1.15137 0.673255 -14.41 1.04838 0.693807 -14.3979 -1.22066 3.07969 5.74144 0.081563 -0.885541 24.0642 2.62551 -3.0718 46.4226 104.203 23.3858 -22.0904 60.2705 22.3872 21.4621 -9.07921 20.5636 38.291 -8.58451 -2.78967 -1.13722 -158.644 -1.25047 154.969 0.000471334 0.000159633 18.1946 0.000304777 -1.51118e-005 11.959 0.000350046 -0.00133658 -0.000100741 36.0641 86.5085 -17.7555 -0.000451532 -0.000464044 14.4454 0.00114765 -0.000806728 10.5802 -0.000617111 -0.000414734 -2.32877 -1.69334 86.8811 35.21 4.61142e-005 -0.00019604 17.605 0.00107862 -0.000728352 18.4311 -0.000536323 -0.000215782 -2.32824 -63.4318 87.7466 103.218 0.000235935 -0.000833289 21.6993 0.00153132 -0.000230283 22.5462 -0.000677832 -0.00074697 -2.32755 -63.1792 86.0904 102.72 0.00128891 -0.00127716 24.1169 7.96257e-005 -7.72615e-005 22.3014 1.27298e-005 -0.000138634 -2.32874 -101.709 -22.7451 -26.062 -61.9212 -18.0028 17.7154 7.99294 -12.4476 26.0058 -1.66768 0.05944 -4.19717 158.644 1.25056 151.962 -1.08835e-005 0.0001928 15.1881 0.000294337 0.000245587 8.95279 -0.0002594 -0.000167846 -180 -36.0675 -86.5084 -23.3843 -0.000349944 -0.000191883 8.82134 0.000310101 0.000110951 4.95714 -0.000106192 1.52462e-005 177.672 1.69052 -86.8814 29.5836 3.82482e-005 1.90774e-005 11.9804 1.10437e-005 0.000145979 12.8066 -0.000207424 0.000152462 177.672 63.4314 -87.7471 97.5947 0.000184572 -0.000279454 16.0746 1.62706e-005 0.000409319 16.9212 -2.86579e-005 4.57385e-005 177.672 63.1802 -86.0906 97.0988 -0.000149189 0.000314522 18.4917 0.000137431 9.58366e-006 16.6768 -0.000228262 1.52462e-005 177.672 
0 0 0 -90 -7.01671e-015 -180 -2.96757 -0.625012 -112.709 -175.898 -13.0208 -103.911 -0.197263 -0.431148 -22.6829 -3.82282 -1.79614 48.1961 -0.573065 0.109662 57.3916 2.06312e-005 -0.000123647 -86.4974 177.351 -3.21249 -105.477 -0.0684883 -0.103524 -19.6011 0.522953 -6.81775 46.5507 0.518549 -0.0791966 56.7926 -0.00106014 0.000647984 -86.4973 0.00524031 0.00519831 122.274 1.64886 1.18157 -14.273 0.783579 0.917831 -14.348 -1.54455 3.90909 5.40137 0.395123 -2.46766 23.7185 2.10483 -3.78499 46.374 103.807 23.4989 -21.5542 60.1081 22.175 21.4097 -8.62119 20.9253 37.2691 -7.99373 -1.45314 -1.68578 -158.644 -1.25046 154.969 0.000471218 0.000158795 18.1946 0.000304737 -2.20019e-005 11.959 0.000350046 -0.00133658 -0.000100741 36.0641 86.5085 -17.7555 -0.000451225 -0.000467251 14.4454 0.00114774 -0.000810716 10.5802 -0.000617139 -0.000422022 -2.32877 -1.69332 86.8811 35.21 4.80212e-005 -0.000205567 17.605 0.00107882 -0.000737147 18.4311 -0.000536348 -0.000229689 -2.32824 -63.4316 87.7466 103.217 0.000238749 -0.000834376 21.6994 0.00153126 -0.000243295 22.5462 -0.000677839 -0.000752433 -2.32756 -63.1791 86.0904 102.72 0.00128919 -0.00128368 24.1169 7.97673e-005 -8.61708e-005 22.3014 1.2728e-005 -0.000146697 -2.32874 -100.486 -22.6909 -26.3791 -58.1455 -13.9299 21.9118 4.9126 -8.4089 18.606 -1.94141 1.80595 -5.64993 158.644 1.25052 151.962 -1.23651e-005 0.00018331 15.1881 0.000293434 0.000245659 8.95279 -0.0002594 -0.000167846 -180 -36.0675 -86.5084 -23.3843 -0.000349769 -0.000195009 8.82134 0.000310257 0.000110638 4.95713 -0.000106812 7.01092e-015 177.672 1.69056 -86.8814 29.5836 3.92599e-005 9.12853e-006 11.9804 1.21744e-005 0.000136777 12.8066 -0.000208044 0.000137215 177.672 63.4318 -87.7471 97.5951 0.000185439 -0.000279335 16.0746 1.67039e-005 0.000411092 16.9212 -2.86579e-005 4.57385e-005 177.672 63.1806 -86.0906 97.0992 -0.000148116 0.000306737 18.4917 0.000138029 9.81422e-007 16.6768 -0.000228882 7.01092e-015 177.672 
0 0 0 -90 -7.01671e-015 -180 -2.9784 -0.113178 -112.933 -175.527 -13.414 -103.951 -0.201511 -0.438817 -22.7878 -3.75424 -1.74904 48.1678 -0.574172 0.111406 57.3036 2.06374e-005 -0.000211113 -86.4974 177.307 -3.41896 -105.041 -0.0547061 -0.166017 -20.2507 0.190154 -6.44023 46.4946 0.559788 -0.106287 56.8742 -0.00106036 0.000574135 -86.4973 0.00156363 0.00860315 122.723 1.64927 1.76573 -14.0961 0.86308 1.25088 -14.3186 -1.69776 4.38685 4.98591 0.600576 -3.66125 23.255 1.73559 -4.64707 46.432 103.938 23.5114 -21.4899 59.12 21.5119 21.5255 -8.29376 21.4996 36.9481 -7.48996 -0.434943 -1.91365 -158.644 -1.25043 154.969 0.000471131 0.000154935 18.1946 0.000304925 -3.38772e-005 11.959 0.000350047 -0.00133658 -0.000100741 36.0641 86.5085 -17.7555 -0.000451248 -0.000470648 14.4454 0.00114782 -0.000819355 10.5802 -0.000617147 -0.000435909 -2.32877 -1.69321 86.881 35.2099 4.4359e-005 -0.000226031 17.605 0.00107895 -0.000755072 18.4311 -0.000536356 -0.000260161 -2.32824 -63.4316 87.7466 103.217 0.00023575 -0.000842328 21.6993 0.00153155 -0.000269573 22.5462 -0.000677845 -0.000764297 -2.32755 -63.1787 86.0904 102.72 0.00128942 -0.0012976 24.1169 8.5785e-005 -0.000104782 22.3014 1.29618e-005 -0.000162572 -2.32874 -99.3748 -22.7159 -26.2122 -51.9488 -6.39887 26.2745 3.46827 -2.095 13.9231 -0.740547 7.42361 -9.2989 158.644 1.25041 151.962 -1.34461e-005 0.000162475 15.1881 0.000290785 0.000245752 8.95279 -0.0002594 -0.000198364 -180 -36.0675 -86.5084 -23.3843 -0.000349657 -0.000200829 8.82134 0.000310405 0.000110285 4.95713 -0.000106812 -7.01092e-015 177.672 1.69068 -86.8815 29.5837 4.04958e-005 -1.18595e-005 11.9804 1.34733e-005 0.000118359 12.8066 -0.000208664 0.000121969 177.672 63.433 -87.7471 97.5964 0.000187335 -0.000278676 16.0746 1.70713e-005 0.000413194 16.9212 -2.92778e-005 3.04923e-005 177.672 63.1814 -86.0906 97.1 -0.000147751 0.000290065 18.4917 0.000138712 -1.61258e-005 16.6768 -0.000230122 -3.04923e-005 177.672 
